<svg width="452" height="189" viewBox="0 0 452 189" fill="none" xmlns="http://www.w3.org/2000/svg">
<path d="M45.1705 2.4545V49H39.7159L14.3523 12.4545H13.8977V49H8.26136V2.4545H13.7159L39.1705 39.0909H39.625V2.4545H45.1705ZM70.358 49.7272C66.9943 49.7272 64.0928 48.9848 61.6534 47.5C59.2292 46 57.358 43.909 56.0398 41.2272C54.7367 38.5303 54.0852 35.3939 54.0852 31.8181C54.0852 28.2424 54.7367 25.0909 56.0398 22.3636C57.358 19.6212 59.1913 17.4848 61.5398 15.9545C63.9034 14.409 66.661 13.6363 69.8125 13.6363C71.6307 13.6363 73.4261 13.9393 75.1989 14.5454C76.9716 15.1515 78.5852 16.1363 80.0398 17.5C81.4943 18.8484 82.6534 20.6363 83.517 22.8636C84.3807 25.0909 84.8125 27.8333 84.8125 31.0909V33.3636H57.9034V28.7272H79.358C79.358 26.7575 78.964 25 78.1761 23.4545C77.4034 21.909 76.2973 20.6893 74.858 19.7954C73.4337 18.9015 71.7519 18.4545 69.8125 18.4545C67.6761 18.4545 65.8277 18.9848 64.267 20.0454C62.7216 21.0909 61.5322 22.4545 60.6989 24.1363C59.8655 25.8181 59.4489 27.6212 59.4489 29.5454V32.6363C59.4489 35.2727 59.9034 37.5075 60.8125 39.3409C61.7367 41.159 63.017 42.5454 64.6534 43.5C66.2898 44.4393 68.1913 44.909 70.358 44.909C71.767 44.909 73.0398 44.7121 74.1761 44.3181C75.3277 43.909 76.3201 43.303 77.1534 42.5C77.9867 41.6818 78.6307 40.6666 79.0852 39.4545L84.267 40.909C83.7216 42.6666 82.8049 44.2121 81.517 45.5454C80.2292 46.8636 78.6383 47.8939 76.7443 48.6363C74.8504 49.3636 72.7216 49.7272 70.358 49.7272ZM100.881 49L90.2443 14.0909H95.8807L103.426 40.8181H103.79L111.244 14.0909H116.972L124.335 40.7272H124.699L132.244 14.0909H137.881L127.244 49H121.972L114.335 22.1818H113.79L106.153 49H100.881ZM178.517 14.0909V18.6363H159.699V14.0909H178.517ZM165.335 49V9.27268C165.335 7.27268 165.805 5.60601 166.744 4.27268C167.684 2.93935 168.903 1.93935 170.403 1.27268C171.903 0.606012 173.487 0.272678 175.153 0.272678C176.472 0.272678 177.547 0.37874 178.381 0.590862C179.214 0.802982 179.835 0.999952 180.244 1.18177L178.699 5.81813C178.426 5.72722 178.047 5.61359 177.562 5.47723C177.093 5.34086 176.472 5.27268 175.699 5.27268C173.926 5.27268 172.646 5.71965 171.858 6.61359C171.085 7.50753 170.699 8.81813 170.699 10.5454V49H165.335ZM186.034 49V14.0909H191.216V19.3636H191.58C192.216 17.6363 193.367 16.2348 195.034 15.159C196.701 14.0833 198.58 13.5454 200.67 13.5454C201.064 13.5454 201.557 13.553 202.148 13.5681C202.739 13.5833 203.186 13.606 203.489 13.6363V19.0909C203.307 19.0454 202.89 18.9772 202.239 18.8863C201.602 18.7803 200.928 18.7272 200.216 18.7272C198.519 18.7272 197.004 19.0833 195.67 19.7954C194.352 20.4924 193.307 21.4621 192.534 22.7045C191.777 23.9318 191.398 25.3333 191.398 26.909V49H186.034ZM223.42 49.7272C220.057 49.7272 217.155 48.9848 214.716 47.5C212.292 46 210.42 43.909 209.102 41.2272C207.799 38.5303 207.148 35.3939 207.148 31.8181C207.148 28.2424 207.799 25.0909 209.102 22.3636C210.42 19.6212 212.254 17.4848 214.602 15.9545C216.966 14.409 219.723 13.6363 222.875 13.6363C224.693 13.6363 226.489 13.9393 228.261 14.5454C230.034 15.1515 231.648 16.1363 233.102 17.5C234.557 18.8484 235.716 20.6363 236.58 22.8636C237.443 25.0909 237.875 27.8333 237.875 31.0909V33.3636H210.966V28.7272H232.42C232.42 26.7575 232.027 25 231.239 23.4545C230.466 21.909 229.36 20.6893 227.92 19.7954C226.496 18.9015 224.814 18.4545 222.875 18.4545C220.739 18.4545 218.89 18.9848 217.33 20.0454C215.784 21.0909 214.595 22.4545 213.761 24.1363C212.928 25.8181 212.511 27.6212 212.511 29.5454V32.6363C212.511 35.2727 212.966 37.5075 213.875 39.3409C214.799 41.159 216.08 42.5454 217.716 43.5C219.352 44.4393 221.254 44.909 223.42 44.909C224.83 44.909 226.102 44.7121 227.239 44.3181C228.39 43.909 229.383 43.303 230.216 42.5C231.049 41.6818 231.693 40.6666 232.148 39.4545L237.33 40.909C236.784 42.6666 235.867 44.2121 234.58 45.5454C233.292 46.8636 231.701 47.8939 229.807 48.6363C227.913 49.3636 225.784 49.7272 223.42 49.7272ZM260.67 49.7272C257.307 49.7272 254.405 48.9848 251.966 47.5C249.542 46 247.67 43.909 246.352 41.2272C245.049 38.5303 244.398 35.3939 244.398 31.8181C244.398 28.2424 245.049 25.0909 246.352 22.3636C247.67 19.6212 249.504 17.4848 251.852 15.9545C254.216 14.409 256.973 13.6363 260.125 13.6363C261.943 13.6363 263.739 13.9393 265.511 14.5454C267.284 15.1515 268.898 16.1363 270.352 17.5C271.807 18.8484 272.966 20.6363 273.83 22.8636C274.693 25.0909 275.125 27.8333 275.125 31.0909V33.3636H248.216V28.7272H269.67C269.67 26.7575 269.277 25 268.489 23.4545C267.716 21.909 266.61 20.6893 265.17 19.7954C263.746 18.9015 262.064 18.4545 260.125 18.4545C257.989 18.4545 256.14 18.9848 254.58 20.0454C253.034 21.0909 251.845 22.4545 251.011 24.1363C250.178 25.8181 249.761 27.6212 249.761 29.5454V32.6363C249.761 35.2727 250.216 37.5075 251.125 39.3409C252.049 41.159 253.33 42.5454 254.966 43.5C256.602 44.4393 258.504 44.909 260.67 44.909C262.08 44.909 263.352 44.7121 264.489 44.3181C265.64 43.909 266.633 43.303 267.466 42.5C268.299 41.6818 268.943 40.6666 269.398 39.4545L274.58 40.909C274.034 42.6666 273.117 44.2121 271.83 45.5454C270.542 46.8636 268.951 47.8939 267.057 48.6363C265.163 49.3636 263.034 49.7272 260.67 49.7272ZM296.466 49.7272C293.557 49.7272 290.989 48.9924 288.761 47.5227C286.534 46.0378 284.792 43.9469 283.534 41.25C282.277 38.5378 281.648 35.3333 281.648 31.6363C281.648 27.9697 282.277 24.7878 283.534 22.0909C284.792 19.3939 286.542 17.3106 288.784 15.8409C291.027 14.3712 293.617 13.6363 296.557 13.6363C298.83 13.6363 300.625 14.0151 301.943 14.7727C303.277 15.5151 304.292 16.3636 304.989 17.3181C305.701 18.2575 306.254 19.0303 306.648 19.6363H307.102V2.4545H312.466V49H307.284V43.6363H306.648C306.254 44.2727 305.693 45.0757 304.966 46.0454C304.239 47 303.201 47.856 301.852 48.6136C300.504 49.356 298.708 49.7272 296.466 49.7272ZM297.193 44.909C299.345 44.909 301.163 44.3484 302.648 43.2272C304.133 42.0909 305.261 40.5227 306.034 38.5227C306.807 36.5075 307.193 34.1818 307.193 31.5454C307.193 28.9393 306.814 26.659 306.057 24.7045C305.299 22.7348 304.178 21.2045 302.693 20.1136C301.208 19.0075 299.375 18.4545 297.193 18.4545C294.92 18.4545 293.027 19.0378 291.511 20.2045C290.011 21.356 288.883 22.9242 288.125 24.909C287.383 26.8787 287.011 29.0909 287.011 31.5454C287.011 34.0303 287.39 36.2878 288.148 38.3181C288.92 40.3333 290.057 41.9393 291.557 43.1363C293.072 44.3181 294.951 44.909 297.193 44.909ZM337.216 49.7272C334.064 49.7272 331.299 48.9772 328.92 47.4772C326.557 45.9772 324.708 43.8787 323.375 41.1818C322.057 38.4848 321.398 35.3333 321.398 31.7272C321.398 28.0909 322.057 24.9166 323.375 22.2045C324.708 19.4924 326.557 17.3863 328.92 15.8863C331.299 14.3863 334.064 13.6363 337.216 13.6363C340.367 13.6363 343.125 14.3863 345.489 15.8863C347.867 17.3863 349.716 19.4924 351.034 22.2045C352.367 24.9166 353.034 28.0909 353.034 31.7272C353.034 35.3333 352.367 38.4848 351.034 41.1818C349.716 43.8787 347.867 45.9772 345.489 47.4772C343.125 48.9772 340.367 49.7272 337.216 49.7272ZM337.216 44.909C339.61 44.909 341.58 44.2954 343.125 43.0681C344.67 41.8409 345.814 40.2272 346.557 38.2272C347.299 36.2272 347.67 34.0606 347.67 31.7272C347.67 29.3939 347.299 27.2197 346.557 25.2045C345.814 23.1893 344.67 21.5606 343.125 20.3181C341.58 19.0757 339.61 18.4545 337.216 18.4545C334.822 18.4545 332.852 19.0757 331.307 20.3181C329.761 21.5606 328.617 23.1893 327.875 25.2045C327.133 27.2197 326.761 29.3939 326.761 31.7272C326.761 34.0606 327.133 36.2272 327.875 38.2272C328.617 40.2272 329.761 41.8409 331.307 43.0681C332.852 44.2954 334.822 44.909 337.216 44.909ZM361.222 49V14.0909H366.403V19.5454H366.858C367.585 17.6818 368.759 16.2348 370.381 15.2045C372.002 14.159 373.949 13.6363 376.222 13.6363C378.525 13.6363 380.441 14.159 381.972 15.2045C383.517 16.2348 384.722 17.6818 385.585 19.5454H385.949C386.843 17.7424 388.184 16.3106 389.972 15.25C391.759 14.1742 393.903 13.6363 396.403 13.6363C399.525 13.6363 402.078 14.6136 404.062 16.5681C406.047 18.5075 407.04 21.5303 407.04 25.6363V49H401.676V25.6363C401.676 23.0606 400.972 21.2197 399.562 20.1136C398.153 19.0075 396.494 18.4545 394.585 18.4545C392.131 18.4545 390.229 19.1969 388.881 20.6818C387.532 22.1515 386.858 24.0151 386.858 26.2727V49H381.403V25.0909C381.403 23.106 380.759 21.5075 379.472 20.2954C378.184 19.0681 376.525 18.4545 374.494 18.4545C373.1 18.4545 371.797 18.8257 370.585 19.5681C369.388 20.3106 368.419 21.3409 367.676 22.659C366.949 23.9621 366.585 25.4697 366.585 27.1818V49H361.222ZM441.574 21.909L436.756 23.2727C436.453 22.4696 436.006 21.6893 435.415 20.9318C434.839 20.159 434.051 19.5227 433.051 19.0227C432.051 18.5227 430.771 18.2727 429.21 18.2727C427.074 18.2727 425.294 18.7651 423.869 19.75C422.46 20.7197 421.756 21.9545 421.756 23.4545C421.756 24.7878 422.241 25.8409 423.21 26.6136C424.18 27.3863 425.695 28.0303 427.756 28.5454L432.938 29.8181C436.059 30.5757 438.384 31.7348 439.915 33.2954C441.445 34.8409 442.21 36.8333 442.21 39.2727C442.21 41.2727 441.634 43.0606 440.483 44.6363C439.347 46.2121 437.756 47.4545 435.71 48.3636C433.665 49.2727 431.286 49.7272 428.574 49.7272C425.013 49.7272 422.066 48.9545 419.733 47.409C417.4 45.8636 415.922 43.606 415.301 40.6363L420.392 39.3636C420.877 41.2424 421.794 42.6515 423.142 43.5909C424.506 44.5303 426.286 45 428.483 45C430.983 45 432.968 44.4697 434.438 43.409C435.922 42.3333 436.665 41.0454 436.665 39.5454C436.665 38.3333 436.241 37.3181 435.392 36.5C434.544 35.6666 433.241 35.0454 431.483 34.6363L425.665 33.2727C422.468 32.5151 420.119 31.3409 418.619 29.75C417.134 28.1439 416.392 26.1363 416.392 23.7272C416.392 21.7575 416.945 20.0151 418.051 18.5C419.172 16.9848 420.695 15.7954 422.619 14.9318C424.559 14.0681 426.756 13.6363 429.21 13.6363C432.665 13.6363 435.377 14.3939 437.347 15.909C439.331 17.4242 440.741 19.4242 441.574 21.909ZM16.4347 170.727C13.2831 170.727 10.518 169.977 8.1392 168.477C5.77557 166.977 3.92708 164.879 2.59375 162.182C1.27557 159.485 0.616477 156.333 0.616477 152.727C0.616477 149.091 1.27557 145.917 2.59375 143.204C3.92708 140.492 5.77557 138.386 8.1392 136.886C10.518 135.386 13.2831 134.636 16.4347 134.636C19.5862 134.636 22.3438 135.386 24.7074 136.886C27.0862 138.386 28.9347 140.492 30.2528 143.204C31.5862 145.917 32.2528 149.091 32.2528 152.727C32.2528 156.333 31.5862 159.485 30.2528 162.182C28.9347 164.879 27.0862 166.977 24.7074 168.477C22.3438 169.977 19.5862 170.727 16.4347 170.727ZM16.4347 165.909C18.8286 165.909 20.7983 165.295 22.3438 164.068C23.8892 162.841 25.0331 161.227 25.7756 159.227C26.518 157.227 26.8892 155.061 26.8892 152.727C26.8892 150.394 26.518 148.22 25.7756 146.204C25.0331 144.189 23.8892 142.561 22.3438 141.318C20.7983 140.076 18.8286 139.454 16.4347 139.454C14.0407 139.454 12.071 140.076 10.5256 141.318C8.98011 142.561 7.83617 144.189 7.09375 146.204C6.35133 148.22 5.98011 150.394 5.98011 152.727C5.98011 155.061 6.35133 157.227 7.09375 159.227C7.83617 161.227 8.98011 162.841 10.5256 164.068C12.071 165.295 14.0407 165.909 16.4347 165.909ZM55.9858 135.091V139.636H37.1676V135.091H55.9858ZM42.804 170V130.273C42.804 128.273 43.2737 126.606 44.2131 125.273C45.1525 123.939 46.3722 122.939 47.8722 122.273C49.3722 121.606 50.9555 121.273 52.6222 121.273C53.9403 121.273 55.0161 121.379 55.8494 121.591C56.6828 121.803 57.304 122 57.7131 122.182L56.1676 126.818C55.8949 126.727 55.5161 126.614 55.0312 126.477C54.5616 126.341 53.9403 126.273 53.1676 126.273C51.3949 126.273 50.1146 126.72 49.3267 127.614C48.554 128.508 48.1676 129.818 48.1676 131.545V170H42.804ZM87.2498 166.928C86.7378 166.416 86.3538 165.776 86.0978 165.008C85.9058 164.24 85.8418 163.472 85.9058 162.704C85.9698 161.936 86.1298 161.296 86.3858 160.784C86.3858 160.272 86.4498 159.888 86.5778 159.632C86.7698 159.312 86.8338 159.024 86.7698 158.768C86.7058 158.512 86.7698 158.064 86.9618 157.424C87.1538 156.784 87.3458 156.176 87.5378 155.6C87.9858 154.576 88.4658 153.36 88.9778 151.952C89.4898 150.48 89.9698 149.04 90.4178 147.632C90.8658 146.224 91.2498 145.008 91.5698 143.984C91.8898 142.96 92.0818 142.32 92.1458 142.064C92.1458 141.296 92.6578 140.88 93.6818 140.816C94.4498 140.56 95.0258 140.56 95.4098 140.816C95.7938 141.008 96.3058 141.616 96.9458 142.64C97.4578 143.152 97.6498 143.92 97.5218 144.944C97.3938 145.968 96.9778 147.248 96.2738 148.784C96.0178 149.296 95.6978 150.032 95.3138 150.992C94.9938 151.952 94.7698 152.816 94.6418 153.584C94.3858 154.096 94.0658 154.832 93.6818 155.792C93.3618 156.688 93.0738 157.552 92.8178 158.384C92.6898 158.704 92.5618 159.184 92.4338 159.824C92.3058 160.4 92.1458 161.04 91.9538 161.744C91.7618 162.384 91.5058 162.96 91.1858 163.472C90.6098 166.096 90.0658 167.632 89.5538 168.08C89.1058 168.528 88.3378 168.144 87.2498 166.928ZM96.5618 127.952C96.2418 127.632 95.9538 127.184 95.6978 126.608C95.4418 125.968 95.2818 125.392 95.2178 124.88C95.1538 124.304 95.2178 124.016 95.4098 124.016C95.9218 123.952 96.5298 123.408 97.2338 122.384C97.9378 121.36 98.2258 120.464 98.0978 119.696C98.0978 119.44 98.1938 119.216 98.3858 119.024C98.5778 118.768 98.8018 118.608 99.0578 118.544C99.8258 118.032 100.562 117.968 101.266 118.352C102.034 118.672 102.738 119.344 103.378 120.368C103.954 121.584 104.114 122.608 103.858 123.44C103.602 124.208 102.898 125.296 101.746 126.704C100.786 127.984 99.8898 128.688 99.0578 128.816C98.2898 128.944 97.4578 128.656 96.5618 127.952ZM147.396 165.968C147.076 165.84 146.596 165.52 145.956 165.008C145.316 164.496 144.772 163.632 144.324 162.416C143.876 161.136 143.652 159.376 143.652 157.136C143.716 155.216 143.748 153.712 143.748 152.624C143.812 151.536 143.588 150.992 143.076 150.992C142.564 150.992 141.572 151.504 140.1 152.528C138.692 153.488 137.06 154.8 135.204 156.464C133.348 158.128 131.46 159.984 129.54 162.032C128.9 162.736 128.26 163.408 127.62 164.048C127.044 164.624 126.468 165.008 125.892 165.2C125.316 165.328 124.644 165.104 123.876 164.528L122.82 163.664C122.5 163.344 122.308 163.024 122.244 162.704C122.18 162.32 122.212 161.904 122.34 161.456L124.548 155.12C125.572 152.816 126.276 151.152 126.66 150.128C127.044 149.04 127.236 148.368 127.236 148.112C127.236 147.792 127.14 147.664 126.948 147.728C126.436 147.792 125.668 148.112 124.644 148.688C123.62 149.2 122.948 149.712 122.628 150.224C122.372 150.224 121.988 150.512 121.476 151.088C120.964 151.664 120.324 152.208 119.556 152.72C119.108 153.488 118.212 154.48 116.868 155.696C115.588 156.912 114.308 158.16 113.028 159.44C112.196 160.144 111.364 161.008 110.532 162.032C109.764 163.056 109.092 163.952 108.516 164.72C108.004 165.488 107.652 165.872 107.46 165.872C106.628 165.872 105.86 165.648 105.156 165.2C104.516 164.752 104.036 164.016 103.716 162.992C103.204 161.904 103.204 160.4 103.716 158.48C104.228 156.496 104.804 153.936 105.444 150.8C105.7 149.84 105.86 149.136 105.924 148.688C105.988 148.24 106.084 147.792 106.212 147.344C106.404 146.832 106.692 146.064 107.076 145.04C107.524 144.016 108.196 142.48 109.092 140.432C109.54 139.216 109.796 138.32 109.86 137.744C109.988 137.104 110.052 136.656 110.052 136.4C110.052 135.76 110.212 135.216 110.532 134.768C110.916 134.32 111.364 134 111.876 133.808C112.388 133.616 112.868 133.584 113.316 133.712C114.02 133.84 114.628 134.192 115.14 134.768C115.716 135.344 116.036 136.144 116.1 137.168C116.164 137.936 116.1 138.64 115.908 139.28C115.716 139.856 115.524 140.4 115.332 140.912L114.276 143.504C113.956 144.208 113.54 145.232 113.028 146.576C112.516 147.92 112.068 149.168 111.684 150.32C111.3 151.408 111.108 152.048 111.108 152.24C111.172 152.432 111.396 152.4 111.78 152.144C112.164 151.824 112.644 151.408 113.22 150.896C113.86 150.32 114.5 149.776 115.14 149.264C116.484 147.984 117.988 146.768 119.652 145.616C121.38 144.4 123.012 143.376 124.548 142.544C126.084 141.712 127.268 141.168 128.1 140.912C129.188 140.912 129.924 141.104 130.308 141.488C130.756 141.872 131.492 142.576 132.516 143.6C132.964 144.048 133.22 144.624 133.284 145.328C133.348 146.032 133.316 146.704 133.188 147.344C133.124 147.6 132.932 148.24 132.612 149.264C132.292 150.224 131.972 151.152 131.652 152.048C131.396 152.944 131.268 153.392 131.268 153.392C131.268 153.392 131.62 153.072 132.324 152.432C133.092 151.792 133.924 151.12 134.82 150.416C135.716 149.648 136.388 149.072 136.836 148.688C139.332 146.768 141.508 145.552 143.364 145.04C145.22 144.528 146.724 145.2 147.876 147.056C148.644 147.76 149.028 148.528 149.028 149.36C149.092 150.192 149.124 151.632 149.124 153.68C149.188 154.512 149.252 155.504 149.316 156.656C149.38 157.808 149.444 158.864 149.508 159.824C149.636 160.72 149.764 161.264 149.892 161.456C150.084 161.712 150.436 161.936 150.948 162.128C151.524 162.256 152.26 162.384 153.156 162.512C154.116 162.64 154.692 163.056 154.884 163.76C155.076 164.464 154.66 165.136 153.636 165.776C152.676 166.352 151.62 166.608 150.468 166.544C149.316 166.48 148.292 166.288 147.396 165.968ZM165.979 167.216C165.467 167.344 164.795 167.408 163.963 167.408C163.131 167.344 162.395 167.248 161.755 167.12C161.179 166.928 160.891 166.736 160.891 166.544C160.891 166.224 160.731 166.064 160.411 166.064C160.411 166.064 160.251 165.936 159.931 165.68C159.675 165.424 159.259 165.168 158.683 164.912C158.107 164.016 157.819 163.056 157.819 162.032C157.819 160.944 158.107 159.248 158.683 156.944C158.875 155.344 159.483 153.488 160.507 151.376C161.595 149.2 162.907 146.992 164.443 144.752C165.979 142.512 167.579 140.496 169.243 138.704C170.971 136.912 172.539 135.6 173.947 134.768C174.843 133.872 175.931 133.392 177.211 133.328C178.491 133.264 179.707 133.552 180.859 134.192C181.499 134.512 182.139 135.024 182.779 135.728C183.419 136.432 184.027 137.2 184.603 138.032C185.179 138.864 185.659 139.696 186.043 140.528C186.235 141.232 186.331 141.872 186.331 142.448C186.395 142.96 186.395 143.6 186.331 144.368C186.331 145.136 186.235 146.288 186.043 147.824C185.723 148.976 185.435 150.384 185.179 152.048C184.987 153.712 184.891 155.152 184.891 156.368C184.763 157.584 184.891 158.448 185.275 158.96C185.723 159.472 186.363 159.504 187.195 159.056C187.963 158.672 188.699 158.512 189.403 158.576C190.107 158.576 190.651 158.768 191.035 159.152C191.483 159.536 191.707 160.112 191.707 160.88C191.707 161.648 191.323 162.448 190.555 163.28C189.851 164.048 188.955 164.72 187.867 165.296C186.843 165.808 185.851 166.064 184.891 166.064C184.187 166.064 183.515 165.648 182.875 164.816C182.235 163.92 181.659 162.864 181.147 161.648C180.699 160.368 180.283 159.152 179.899 158L179.323 155.792L175.195 159.728C174.363 160.624 173.531 161.456 172.699 162.224C171.931 162.928 171.451 163.44 171.259 163.76C170.939 164.336 170.331 164.912 169.435 165.488C168.603 166.064 167.451 166.64 165.979 167.216ZM166.267 161.552C167.355 160.912 168.603 159.984 170.011 158.768C171.419 157.488 172.795 156.112 174.139 154.64C175.483 153.104 176.603 151.696 177.499 150.416C178.587 148.944 179.419 147.568 179.995 146.288C180.571 145.008 180.987 143.792 181.243 142.64C180.987 141.936 180.571 141.2 179.995 140.432C179.419 139.6 178.907 139.152 178.459 139.088C177.051 139.088 175.547 139.984 173.947 141.776C172.411 143.504 170.907 145.392 169.435 147.44C169.179 147.76 168.827 148.272 168.379 148.976C167.931 149.68 167.483 150.352 167.035 150.992C166.651 151.568 166.395 151.952 166.267 152.144C166.075 152.4 165.691 153.136 165.115 154.352C164.603 155.504 164.091 156.688 163.579 157.904C163.067 159.056 162.811 159.824 162.811 160.208C162.811 160.592 162.843 161.008 162.907 161.456C163.035 161.904 163.355 162.192 163.867 162.32C164.379 162.448 165.179 162.192 166.267 161.552ZM204.606 188.048C203.902 188.112 202.814 187.952 201.342 187.568C199.934 187.184 198.878 186.832 198.174 186.512C197.342 185.872 196.51 185.008 195.678 183.92C194.846 182.832 194.174 181.712 193.662 180.56C193.214 179.472 193.022 178.64 193.086 178.064C193.15 177.552 193.63 177.456 194.526 177.776C195.486 178.096 196.126 178.512 196.446 179.024C197.022 179.728 197.694 180.4 198.462 181.04C199.23 181.68 199.998 182.16 200.766 182.48C201.534 182.864 202.142 183.024 202.59 182.96C204.19 182.704 205.502 181.904 206.526 180.56C207.614 179.28 208.574 177.648 209.406 175.664C209.918 174.256 210.302 173.072 210.558 172.112C210.878 171.216 211.166 170.192 211.422 169.04C211.742 167.888 212.126 166.288 212.574 164.24C213.15 161.936 213.534 160.304 213.726 159.344C213.982 158.32 214.11 157.648 214.11 157.328C214.11 157.008 214.014 156.784 213.822 156.656C213.822 156.656 213.406 156.88 212.574 157.328C211.742 157.776 210.814 158.256 209.79 158.768C208.83 159.28 208.094 159.696 207.582 160.016C205.79 160.592 204.03 160.944 202.302 161.072C200.574 161.2 199.23 161.104 198.27 160.784C197.822 160.592 197.342 160.144 196.83 159.44C196.382 158.736 195.998 157.968 195.678 157.136C195.422 156.24 195.326 155.472 195.39 154.832C195.454 154.32 195.742 153.552 196.254 152.528C196.766 151.504 197.342 150.416 197.982 149.264C198.686 148.112 199.294 147.152 199.806 146.384C200.382 145.552 200.734 145.136 200.862 145.136C201.118 145.136 201.246 145.04 201.246 144.848C201.31 144.656 201.342 144.432 201.342 144.176C201.406 143.92 201.886 143.376 202.782 142.544C203.742 141.648 205.022 140.56 206.622 139.28C208.862 137.232 210.878 135.664 212.67 134.576C214.462 133.488 216.126 132.88 217.662 132.752C218.11 132.816 218.526 132.848 218.91 132.848C219.358 132.848 219.582 132.848 219.582 132.848C219.582 132.848 219.774 132.976 220.158 133.232C220.606 133.424 221.182 133.68 221.886 134C222.846 134.384 223.71 135.056 224.478 136.016C225.246 136.912 225.854 137.968 226.302 139.184C226.814 140.336 227.102 141.488 227.166 142.64C227.102 144.048 226.782 145.424 226.206 146.768C225.694 148.112 225.182 148.752 224.67 148.688C224.158 148.624 223.518 148.848 222.75 149.36C222.046 149.872 221.694 150.256 221.694 150.512C221.694 150.768 221.598 151.088 221.406 151.472C221.278 151.856 220.862 152.464 220.158 153.296C220.094 153.616 219.902 154.48 219.582 155.888C219.326 157.232 219.006 158.768 218.622 160.496C218.238 162.224 217.886 163.792 217.566 165.2C217.31 166.544 217.15 167.408 217.086 167.792C217.022 168.048 216.862 168.624 216.606 169.52C216.414 170.352 216.126 171.312 215.742 172.4C215.422 173.488 215.07 174.512 214.686 175.472C214.43 177.328 214.078 178.704 213.63 179.6C213.246 180.56 212.606 181.584 211.71 182.672C210.75 184.272 209.598 185.52 208.254 186.416C206.91 187.376 205.694 187.92 204.606 188.048ZM200.67 155.792C200.798 156.432 201.662 156.656 203.262 156.464C204.862 156.208 206.462 155.664 208.062 154.832C209.47 154.128 210.75 153.552 211.902 153.104C213.054 152.656 213.854 152.016 214.302 151.184C214.686 150.544 215.006 149.904 215.262 149.264C215.518 148.624 215.838 147.696 216.222 146.48C216.286 146.224 216.446 145.936 216.702 145.616C217.022 145.232 217.31 145.008 217.566 144.944C217.822 144.88 218.078 144.88 218.334 144.944C218.654 145.008 219.038 145.136 219.486 145.328C219.806 145.2 220.03 144.88 220.158 144.368C220.35 143.856 220.382 143.28 220.254 142.64C220.19 142.192 219.87 141.584 219.294 140.816C218.718 140.048 217.982 139.44 217.086 138.992C216.126 138.48 215.006 138.8 213.726 139.952C212.446 141.104 210.878 142.512 209.022 144.176C207.55 145.52 206.142 146.928 204.798 148.4C203.454 149.872 202.366 151.248 201.534 152.528C200.766 153.808 200.478 154.896 200.67 155.792ZM232.299 165.296C232.043 165.296 231.723 165.232 231.339 165.104C231.019 164.912 230.859 164.816 230.859 164.816C230.859 164.56 230.763 164.24 230.571 163.856C230.443 163.472 230.379 163.152 230.379 162.896C229.931 162.64 229.675 162.384 229.611 162.128C229.547 161.808 229.643 161.296 229.899 160.592C230.283 159.952 230.795 158.928 231.435 157.52C232.075 156.048 232.747 154.48 233.451 152.816C234.155 151.088 234.827 149.392 235.467 147.728C236.107 146.064 236.651 144.656 237.099 143.504C237.547 142.288 237.803 141.552 237.867 141.296C237.867 141.04 237.963 140.72 238.155 140.336C238.347 139.952 238.571 139.632 238.827 139.376C239.339 138.928 239.883 138.896 240.459 139.28C241.035 139.6 241.515 140.176 241.899 141.008C242.347 141.776 242.571 142.64 242.571 143.6C242.571 144.048 242.251 145.2 241.611 147.056C240.971 148.848 240.107 150.992 239.019 153.488C237.995 155.984 236.843 158.512 235.563 161.072C234.603 162.928 233.995 164.112 233.739 164.624C233.483 165.072 233.003 165.296 232.299 165.296ZM246.411 128.912C245.643 128.912 244.811 128.624 243.915 128.048C243.083 127.408 242.347 126.64 241.707 125.744C241.131 124.784 240.843 123.824 240.843 122.864C240.843 122.544 241.035 122.096 241.419 121.52C241.803 120.944 242.187 120.368 242.571 119.792C242.955 119.216 243.147 118.864 243.147 118.736C243.659 118.736 244.043 118.768 244.299 118.832C244.619 118.832 245.003 118.96 245.451 119.216C246.155 120.816 247.019 122.128 248.043 123.152C249.131 124.176 249.675 125.04 249.675 125.744C249.675 127.152 249.547 128.048 249.291 128.432C249.035 128.752 248.075 128.912 246.411 128.912ZM252.989 165.776C252.733 165.776 252.349 165.616 251.837 165.296C251.389 164.912 251.037 164.592 250.781 164.336C250.333 163.824 250.045 163.312 249.917 162.8C249.853 162.288 249.821 161.136 249.821 159.344C249.821 157.296 250.237 155.088 251.069 152.72C251.901 150.288 253.309 146.896 255.293 142.544L258.461 135.824C258.717 135.312 258.941 134.928 259.133 134.672C259.389 134.416 259.613 134.16 259.805 133.904C260.061 133.904 260.285 133.904 260.477 133.904C260.669 133.904 260.765 133.904 260.765 133.904C261.277 133.904 261.789 134.224 262.301 134.864C262.813 135.44 263.197 136.08 263.453 136.784C263.453 137.616 263.325 138.48 263.069 139.376C262.877 140.272 262.109 141.616 260.765 143.408C260.317 144.112 259.709 145.296 258.941 146.96C258.237 148.624 257.757 150.064 257.501 151.28C257.437 151.344 257.309 151.632 257.117 152.144C256.925 152.592 256.701 153.104 256.445 153.68C256.253 154.256 256.029 154.8 255.773 155.312L255.293 157.424L261.725 150.8C264.733 147.792 267.165 145.648 269.021 144.368C270.877 143.088 272.349 142.544 273.437 142.736C274.525 142.928 275.453 143.792 276.221 145.328C276.669 146.032 276.989 146.672 277.181 147.248C277.437 147.76 277.597 148.464 277.661 149.36C277.725 150.256 277.661 151.6 277.469 153.392V159.344C278.429 159.088 279.197 158.864 279.773 158.672C280.349 158.416 280.957 158.16 281.597 157.904C282.173 157.648 282.845 157.424 283.613 157.232C284.381 156.976 285.341 156.816 286.493 156.752C286.429 157.584 286.141 158.48 285.629 159.44C285.117 160.336 284.477 161.2 283.709 162.032C282.941 162.864 282.077 163.536 281.117 164.048C280.221 164.56 279.325 164.816 278.429 164.816C277.597 164.816 276.669 164.4 275.645 163.568C274.621 162.736 273.885 161.808 273.437 160.784C273.181 160.08 273.021 159.312 272.957 158.48C272.957 157.648 272.957 156.112 272.957 153.872V150.32C272.957 149.296 272.637 149.008 271.997 149.456C271.421 149.84 270.941 150.192 270.557 150.512C269.597 151.344 268.573 152.304 267.485 153.392C266.461 154.48 265.405 155.6 264.317 156.752C261.373 159.824 258.909 162.096 256.925 163.568C255.005 165.04 253.693 165.776 252.989 165.776ZM292.272 166.544C292.016 166.032 291.696 165.648 291.312 165.392C290.928 165.072 290.736 164.784 290.736 164.528C290.736 164.272 290.704 164.016 290.64 163.76C290.64 163.44 290.512 163.152 290.256 162.896C289.936 162.512 289.968 161.648 290.352 160.304C290.736 158.896 291.376 157.2 292.272 155.216C293.168 153.168 294.224 151.024 295.44 148.784C295.952 148.272 296.464 147.6 296.976 146.768C297.488 145.936 297.872 145.392 298.128 145.136C298.128 144.88 298.224 144.656 298.416 144.464C298.608 144.208 298.832 144.08 299.088 144.08V143.504C299.088 143.184 299.376 142.64 299.952 141.872C300.592 141.104 301.36 140.272 302.256 139.376C303.152 138.416 304.08 137.52 305.04 136.688C306 135.792 306.8 135.152 307.44 134.768C308.784 133.872 310.16 133.328 311.568 133.136C313.04 132.944 314.288 133.264 315.312 134.096C315.504 134.288 315.824 134.608 316.272 135.056C316.72 135.504 317.232 136.016 317.808 136.592C318.448 137.104 319.088 137.648 319.728 138.224L323.28 141.392L321.552 146.192C320.72 148.752 320.496 150.992 320.88 152.912C321.328 154.832 321.968 156.496 322.8 157.904C323.12 158.608 323.76 159.28 324.72 159.92C325.744 160.56 326.704 160.944 327.6 161.072C328.112 161.136 328.592 161.328 329.04 161.648C329.488 161.968 329.712 162.48 329.712 163.184C329.712 163.824 329.584 164.336 329.328 164.72C329.072 165.104 328.624 165.36 327.984 165.488C325.872 165.744 323.888 165.232 322.032 163.952C320.24 162.672 318.576 160.56 317.04 157.616C316.784 157.232 316.432 156.528 315.984 155.504C315.6 154.416 315.376 153.712 315.312 153.392C315.056 153.712 314.576 154.32 313.872 155.216C313.168 156.048 312.624 156.656 312.24 157.04C307.696 161.648 303.76 164.752 300.432 166.352C297.168 167.888 294.448 167.952 292.272 166.544ZM295.728 161.168C295.728 161.616 296.4 161.616 297.744 161.168C299.152 160.656 300.656 159.76 302.256 158.48C304.432 156.624 306.608 154.576 308.784 152.336C311.024 150.096 312.816 148.016 314.16 146.096L316.272 142.64C315.632 141.168 314.928 140.176 314.16 139.664C313.456 139.088 312.848 138.8 312.336 138.8C311.504 138.8 310.256 139.568 308.592 141.104C306.992 142.64 305.264 144.688 303.408 147.248C301.552 149.808 299.792 152.624 298.128 155.696C297.488 156.976 296.912 158.224 296.4 159.44C295.952 160.592 295.728 161.168 295.728 161.168ZM341.09 169.328C340.386 169.2 339.65 168.848 338.882 168.272C338.178 167.632 337.538 166.928 336.962 166.16C336.45 165.328 336.098 164.592 335.906 163.952C335.906 163.824 335.81 163.664 335.618 163.472C335.49 163.28 335.426 163.184 335.426 163.184C335.17 162.992 335.01 162.16 334.946 160.688C334.946 159.152 335.042 157.456 335.234 155.6C335.426 153.744 335.65 152.272 335.906 151.184C336.226 150.16 336.706 148.784 337.346 147.056C337.986 145.264 338.53 143.664 338.978 142.256L341.57 136.688L337.73 135.632C337.282 135.504 336.898 135.248 336.578 134.864C336.322 134.48 336.194 134.16 336.194 133.904C336.194 133.392 336.482 132.784 337.058 132.08C337.634 131.312 338.05 130.928 338.306 130.928C338.626 130.992 339.202 131.024 340.034 131.024C340.93 131.024 341.794 130.992 342.626 130.928C343.458 130.864 343.97 130.8 344.162 130.736C344.418 130.608 344.674 130.448 344.93 130.256C345.186 130 345.378 129.648 345.506 129.2C345.826 128.496 346.114 127.856 346.37 127.28C346.626 126.64 346.978 125.936 347.426 125.168C347.874 124.336 348.226 123.632 348.482 123.056C348.802 122.48 349.282 121.68 349.922 120.656C350.242 120.208 350.594 119.664 350.978 119.024C351.362 118.384 351.842 117.84 352.418 117.392C352.994 116.88 353.57 116.656 354.146 116.72C354.786 116.72 355.586 117.136 356.546 117.968C357.058 118.608 357.346 119.088 357.41 119.408C357.474 119.728 357.218 120.336 356.642 121.232C356.13 122.32 355.522 123.408 354.818 124.496C354.178 125.584 353.57 126.672 352.994 127.76C351.97 129.168 351.778 129.968 352.418 130.16C353.058 130.352 354.85 130.224 357.794 129.776C359.65 129.456 360.994 129.552 361.826 130.064C362.658 130.512 363.138 131.28 363.266 132.368C363.458 133.904 363.298 134.832 362.786 135.152C362.274 135.472 360.802 135.632 358.37 135.632C356.834 135.888 355.522 136.048 354.434 136.112C353.346 136.112 352.546 136.112 352.034 136.112C351.202 136.176 350.658 136.208 350.402 136.208C350.146 136.208 349.762 136.272 349.25 136.4C348.738 136.528 348.354 136.752 348.098 137.072C347.906 137.328 347.682 137.712 347.426 138.224C347.17 138.48 346.786 139.152 346.274 140.24C345.762 141.328 345.122 142.512 344.354 143.792C343.458 146.48 342.69 149.168 342.05 151.856C341.41 154.48 340.898 157.04 340.514 159.536C340.258 161.136 340.29 162.256 340.61 162.896C340.93 163.472 341.762 163.824 343.106 163.952C343.81 164.016 344.93 164.016 346.466 163.952C348.066 163.824 349.314 163.632 350.21 163.376C350.914 163.056 351.65 162.736 352.418 162.416C353.186 162.032 353.89 161.648 354.53 161.264C355.106 160.944 355.682 160.624 356.258 160.304C356.834 159.92 357.122 159.728 357.122 159.728C357.442 159.216 357.794 159.056 358.178 159.248C358.562 159.44 358.882 159.92 359.138 160.688C359.138 161.456 358.978 162.256 358.658 163.088C358.338 163.92 357.154 164.912 355.106 166.064C352.226 167.856 349.57 168.944 347.138 169.328C344.77 169.648 342.754 169.648 341.09 169.328ZM370.088 167.024C369.128 166.896 368.296 166.224 367.592 165.008C366.952 163.728 366.568 162.576 366.44 161.552C366.504 161.04 366.568 160.304 366.632 159.344C366.76 158.384 366.888 157.392 367.016 156.368C367.272 155.152 367.624 153.68 368.072 151.952C368.52 150.16 368.968 148.368 369.416 146.576C369.928 144.784 370.376 143.248 370.76 141.968C371.144 140.688 371.4 139.92 371.528 139.664C371.848 139.152 372.36 139.024 373.064 139.28C373.768 139.536 374.344 139.92 374.792 140.432C375.176 140.944 375.4 141.552 375.464 142.256C375.592 142.96 375.496 143.984 375.176 145.328C374.92 146.672 374.408 148.656 373.64 151.28C372.936 153.84 372.392 155.92 372.008 157.52C371.688 159.056 371.56 160.688 371.624 162.416C371.368 164.592 371.176 165.936 371.048 166.448C370.92 166.896 370.6 167.088 370.088 167.024ZM381.128 128.72C380.872 128.912 380.616 129.008 380.359 129.008C380.168 128.944 379.816 128.752 379.304 128.432C378.856 128.368 378.28 128.08 377.576 127.568C376.936 126.992 376.36 126.416 375.848 125.84C375.4 125.2 375.176 124.816 375.176 124.688C375.112 124.048 375.144 123.248 375.272 122.288C375.464 121.264 375.816 120.368 376.328 119.6C376.84 118.768 377.576 118.32 378.536 118.256C378.792 118.256 379.016 118.288 379.208 118.352C379.4 118.416 379.976 118.64 380.936 119.024C381.448 119.984 381.96 121.072 382.472 122.288C382.984 123.44 383.208 124.592 383.144 125.744C383.08 126.832 382.408 127.824 381.128 128.72ZM392.89 169.424C392.058 169.488 391.386 169.424 390.874 169.232C390.362 168.976 389.722 168.624 388.954 168.176C387.546 167.088 386.49 166 385.786 164.912C385.146 163.76 384.858 162.64 384.922 161.552C385.05 160.976 385.05 160.464 384.922 160.016C384.858 159.568 384.826 159.344 384.826 159.344C384.442 159.024 384.314 158.832 384.442 158.768C384.57 158.64 384.666 158.448 384.73 158.192C385.242 158.064 385.306 157.712 384.922 157.136C384.73 156.624 384.826 155.472 385.21 153.68C385.658 151.824 386.234 150.096 386.938 148.496C387.258 147.792 387.706 146.864 388.282 145.712C388.922 144.56 389.626 143.408 390.394 142.256C391.162 141.04 391.866 140.08 392.506 139.376C393.914 137.776 395.162 136.592 396.25 135.824C397.402 134.992 398.682 134.32 400.09 133.808C401.37 133.296 402.298 133.008 402.874 132.944C403.45 132.88 404.25 133.264 405.274 134.096C406.81 134.544 407.962 135.184 408.73 136.016C409.562 136.784 410.202 138 410.65 139.664C411.162 141.52 411.322 143.728 411.13 146.288C411.002 148.784 409.914 152.016 407.866 155.984C406.65 158.48 405.434 160.368 404.218 161.648C403.066 162.928 401.658 164.272 399.994 165.68C398.778 166.704 397.658 167.504 396.634 168.08C395.61 168.656 394.362 169.104 392.89 169.424ZM400.57 158C401.85 156.08 402.842 154.32 403.546 152.72C404.314 151.056 404.922 148.976 405.37 146.48C405.498 145.776 405.53 144.912 405.466 143.888C405.402 142.8 405.242 141.808 404.986 140.912C404.794 140.016 404.506 139.536 404.122 139.472C403.29 139.152 402.362 139.152 401.338 139.472C400.314 139.728 399.194 140.496 397.978 141.776C396.89 143.056 395.898 144.496 395.002 146.096C394.17 147.696 393.402 149.456 392.698 151.376C391.994 153.296 391.322 155.344 390.682 157.52C390.042 159.952 390.074 161.808 390.778 163.088C391.546 164.368 392.794 164.688 394.522 164.048C396.25 163.344 398.266 161.328 400.57 158ZM446.798 168.848C446.158 168.848 445.486 168.496 444.782 167.792C444.142 167.088 443.566 166.224 443.054 165.2C442.606 164.112 442.382 163.088 442.382 162.128C442.382 161.168 442.606 159.376 443.054 156.752C443.566 154.128 444.174 151.472 444.878 148.784C445.39 147.12 445.55 146.16 445.358 145.904C445.166 145.648 444.302 146 442.766 146.96C441.87 147.408 441.07 147.888 440.366 148.4C439.662 148.848 439.054 149.36 438.542 149.936C438.222 150.192 437.742 150.608 437.102 151.184C436.462 151.76 435.79 152.304 435.086 152.816C434.254 153.456 433.198 154.352 431.918 155.504C430.638 156.656 429.358 157.808 428.078 158.96C426.862 160.112 425.934 161.008 425.294 161.648C425.166 161.904 424.974 162.128 424.718 162.32C424.462 162.512 424.174 162.64 423.854 162.704C423.534 162.704 423.182 162.64 422.798 162.512C422.094 162.32 421.422 161.904 420.782 161.264C420.206 160.624 419.918 159.888 419.918 159.056C419.918 158.416 420.174 157.328 420.686 155.792C421.198 154.192 421.87 152.272 422.702 150.032C423.598 147.792 424.622 145.424 425.774 142.928C425.966 142.608 426.126 142.224 426.254 141.776C426.382 141.264 426.478 140.72 426.542 140.144C426.67 139.568 426.734 139.024 426.734 138.512C426.734 138.192 426.766 137.872 426.83 137.552C426.958 137.168 427.086 136.816 427.214 136.496C427.406 136.112 427.566 135.856 427.694 135.728C427.95 135.216 428.398 135.088 429.038 135.344C429.678 135.536 430.222 135.984 430.67 136.688C431.63 137.584 432.109 138.704 432.109 140.048C432.174 141.392 431.854 143.056 431.15 145.04C430.894 145.488 430.67 145.936 430.478 146.384C430.35 146.768 430.222 147.12 430.094 147.44C429.966 147.696 429.87 147.92 429.806 148.112C429.742 148.24 429.71 148.304 429.71 148.304C429.966 148.304 430.542 148.016 431.438 147.44C432.333 146.864 433.39 146.224 434.606 145.52C435.566 144.816 436.398 144.176 437.102 143.6C437.87 142.96 438.51 142.48 439.022 142.16C439.534 141.776 439.854 141.584 439.982 141.584C440.238 141.584 440.558 141.488 440.942 141.296C441.326 141.104 441.646 140.88 441.902 140.624C442.158 140.368 442.35 140.24 442.478 140.24C442.67 140.176 442.766 140.144 442.766 140.144C442.766 140.144 442.894 140.144 443.15 140.144C443.406 140.08 443.662 139.92 443.918 139.664C444.43 139.28 445.102 139.184 445.934 139.376C446.766 139.504 447.534 139.824 448.238 140.336C448.942 140.848 449.294 141.424 449.294 142.064C449.294 142.32 449.358 142.544 449.486 142.736C449.678 142.864 449.774 142.928 449.774 142.928C450.286 142.928 450.606 143.728 450.734 145.328C450.926 146.928 450.766 148.464 450.254 149.936C450.254 150.896 450.062 152.048 449.678 153.392C449.358 154.736 449.07 156.016 448.814 157.232C448.302 158.832 447.95 160.24 447.758 161.456C447.566 162.672 447.534 163.696 447.662 164.528C447.79 165.36 448.014 166.032 448.334 166.544C448.59 166.992 448.59 167.504 448.334 168.08C448.078 168.592 447.566 168.848 446.798 168.848Z" fill="black"/>
</svg>
